<?xml version="1.0" encoding="utf-8"?>
<!-- Generator: Adobe Illustrator 22.1.0, SVG Export Plug-In . SVG Version: 6.00 Build 0)  -->
<svg version="1.1" id="Layer_1" xmlns="http://www.w3.org/2000/svg" xmlns:xlink="http://www.w3.org/1999/xlink" x="0px" y="0px"
	 viewBox="0 0 370 412" style="enable-background:new 0 0 370 412;" xml:space="preserve">
<style type="text/css">
	.st0{fill:#CCCCCC;stroke:#000000;stroke-width:4;stroke-miterlimit:10;}
	.st1{fill:#207245;}
	.st2{fill:#FFFFFF;}
	.st3{fill:#F2F2F2;stroke:#000000;stroke-width:4;stroke-linejoin:round;stroke-miterlimit:10;}
	.st4{fill:none;stroke:#000000;stroke-width:4;stroke-miterlimit:10;}
</style>
<path class="st0" d="M315.3,168.7L178.6,305.4L41.9,168.7c-0.4-0.4-0.4-1.1,0-1.5L176.3,46.4c1.5-1.4,3.8-1.4,5.4,0l133.5,120.9
	C315.6,167.7,315.7,168.3,315.3,168.7z"/>
<path id="path10" inkscape:connector-curvature="0" class="st1" d="M183.8,60h15.5c0,7,0,13.9,0,20.8c26.1,0,52.1,0.1,78.2-0.1
	c4.4,0.2,9.2-0.1,13.1,2.5c2.7,3.9,2.4,8.8,2.6,13.2c-0.1,45.2-0.1,90.4-0.1,135.6c-0.1,7.6,0.7,15.3-0.9,22.8
	c-1,5.4-7.6,5.5-11.9,5.7c-27,0.1-54-0.1-81,0c0,7.8,0,15.6,0,23.4h-16.2c-39.7-7.2-79.5-13.9-119.2-20.8c0-60.8,0-121.5,0-182.3
	C103.9,73.9,143.9,67.1,183.8,60z"/>
<path id="path48" inkscape:connector-curvature="0" class="st2" d="M199.3,88.6c28.6,0,57.3,0,85.9,0c0,54.7,0,109.4,0,164.1
	c-28.6,0-57.3,0-85.9,0c0-5.2,0-10.4,0-15.6c7,0,13.9,0,20.8,0c0-6.1,0-12.2,0-18.2c-7,0-13.9,0-20.8,0c0-3.5,0-7,0-10.4
	c7,0,13.9,0,20.8,0c0-6.1,0-12.2,0-18.2c-7,0-13.9,0-20.8,0c0-3.5,0-7,0-10.4c7,0,13.9,0,20.8,0c0-6.1,0-12.2,0-18.2
	c-7,0-13.9,0-20.8,0c0-3.5,0-7,0-10.4c7,0,13.9,0,20.8,0c0-6.1,0-12.2,0-18.2c-7,0-13.9,0-20.8,0c0-3.5,0-7,0-10.4
	c7,0,13.9,0,20.8,0c0-6.1,0-12.2,0-18.2c-7,0-13.9,0-20.8,0C199.3,99.1,199.3,93.9,199.3,88.6z"/>
<path id="path58" inkscape:connector-curvature="0" class="st1" d="M230.5,104.3c12.2,0,24.3,0,36.5,0c0,6.1,0,12.2,0,18.2
	c-12.2,0-24.3,0-36.5,0C230.5,116.4,230.5,110.3,230.5,104.3z"/>
<path id="path72" inkscape:connector-curvature="0" class="st2" d="M141.1,128.7c5.9-0.4,11.8-0.8,17.7-1.1
	c-7,14.2-13.9,28.5-21,42.7c7.2,14.6,14.5,29.1,21.7,43.6c-6.3-0.4-12.5-0.8-18.8-1.2c-4.4-10.9-9.8-21.4-13-32.7
	c-3.5,10.6-8.6,20.5-12.7,30.9c-5.7-0.1-11.4-0.3-17.1-0.5c6.7-13.1,13.2-26.3,20.1-39.3c-5.9-13.4-12.3-26.6-18.3-39.9
	c5.7-0.3,11.5-0.7,17.2-1c3.9,10.2,8.1,20.2,11.3,30.7C131.5,149.8,136.7,139.4,141.1,128.7z"/>
<path id="path90" inkscape:connector-curvature="0" class="st1" d="M230.5,132.9c12.2,0,24.3,0,36.5,0c0,6.1,0,12.2,0,18.2
	c-12.2,0-24.3,0-36.5,0C230.5,145.1,230.5,139,230.5,132.9z"/>
<path id="path108" inkscape:connector-curvature="0" class="st1" d="M230.5,161.6c12.2,0,24.3,0,36.5,0c0,6.1,0,12.2,0,18.2
	c-12.2,0-24.3,0-36.5,0C230.5,173.7,230.5,167.6,230.5,161.6z"/>
<path id="path114" inkscape:connector-curvature="0" class="st1" d="M230.5,190.2c12.2,0,24.3,0,36.5,0c0,6.1,0,12.2,0,18.2
	c-12.2,0-24.3,0-36.5,0C230.5,202.4,230.5,196.3,230.5,190.2z"/>
<path id="path120" inkscape:connector-curvature="0" class="st1" d="M230.5,218.9c12.2,0,24.3,0,36.5,0c0,6.1,0,12.2,0,18.2
	c-12.2,0-24.3,0-36.5,0C230.5,231,230.5,224.9,230.5,218.9z"/>
<path class="st3" d="M178.4,259.5L42.2,168.3H41V347c0,2.2,1.8,4,4,4h267c2.2,0,4-1.8,4-4V168.3h-1.5L178.4,259.5z"/>
<polyline class="st4" points="316,351 179,260 41,351 "/>
</svg>
